<svg id="visual" viewBox="0 0 900 600" width="900" height="600" xmlns="http://www.w3.org/2000/svg" xmlns:xlink="http://www.w3.org/1999/xlink" version="1.1"><path d="M166 0L168.2 8.3C170.3 16.7 174.7 33.3 176.5 50C178.3 66.7 177.7 83.3 179.2 100C180.7 116.7 184.3 133.3 187.3 150C190.3 166.7 192.7 183.3 182.8 200C173 216.7 151 233.3 156 250C161 266.7 193 283.3 208.7 300C224.3 316.7 223.7 333.3 211.3 350C199 366.7 175 383.3 177 400C179 416.7 207 433.3 218.3 450C229.7 466.7 224.3 483.3 220.5 500C216.7 516.7 214.3 533.3 207.7 550C201 566.7 190 583.3 184.5 591.7L179 600L0 600L0 591.7C0 583.3 0 566.7 0 550C0 533.3 0 516.7 0 500C0 483.3 0 466.7 0 450C0 433.3 0 416.7 0 400C0 383.3 0 366.7 0 350C0 333.3 0 316.7 0 300C0 283.3 0 266.7 0 250C0 233.3 0 216.7 0 200C0 183.3 0 166.7 0 150C0 133.3 0 116.7 0 100C0 83.3 0 66.7 0 50C0 33.3 0 16.7 0 8.3L0 0Z" fill="#FCAF3C" stroke-linecap="round" stroke-linejoin="miter"></path></svg>